<svg xmlns="http://www.w3.org/2000/svg" viewBox="-149.0 -3076.0 8846.0 5810.4" color="currentColor"><path d="M777.0 889.0 31.0 19.0 55.0 -17.0Q1099.0 368.0 2351.0 368.0Q3293.0 368.0 4140.0 48.0Q4167.0 35.0 4195.0 22.5Q4223.0 10.0 4252.0 -4.0Q4176.0 -83.0 4073.0 -107.0Q4021.0 -119.0 3944.5 -131.0Q3868.0 -143.0 3765.0 -156.0Q3568.0 -182.0 3568.0 -213.0Q3568.0 -307.0 3720.0 -492.0Q3871.0 -676.0 3920.0 -676.0H4539.0V0.0H4437.0Q4409.0 92.0 4387.5 161.5Q4366.0 231.0 4343.0 286.5Q4320.0 342.0 4291.0 386.0Q4262.0 430.0 4219.5 470.5Q4177.0 511.0 4116.5 552.5Q4056.0 594.0 3970.0 643.0Q3863.0 706.0 3737.5 760.0Q3612.0 814.0 3476.0 859.0Q3340.0 904.0 3197.0 940.0Q3054.0 976.0 2912.5 1003.5Q2771.0 1031.0 2635.0 1049.5Q2499.0 1068.0 2376.0 1078.0Q2202.0 1092.0 2031.0 1092.0Q1379.0 1092.0 777.0 889.0Z M5313.0 -762.0Q5420.0 -762.0 5551.0 -893.0Q5545.0 -1014.0 5485.0 -1110.0Q5429.0 -1200.0 5313.0 -1200.0Q5150.0 -1200.0 4986.0 -1024.0Q5004.0 -975.0 5137.0 -868.0Q5262.0 -767.0 5313.0 -762.0ZM5518.0 -2314.0 5174.0 -2601.0 5436.0 -2896.0 5780.0 -2609.0ZM5985.0 0.0H5690.0Q5533.0 0.0 5424.0 -41.0Q5248.0 -108.0 5199.0 -160.0Q5171.0 -180.0 5158.0 -184.0Q5048.0 -109.0 4863.0 -49.0Q4712.0 0.0 4634.0 0.0H4519.0V-676.0H4834.0Q4826.0 -703.0 4826.0 -713.0Q4826.0 -724.0 4830.0 -729.0V-740.0Q4830.0 -750.0 4834.0 -754.0V-844.0Q4834.0 -1047.0 4941.0 -1275.0Q5042.0 -1492.0 5195.0 -1642.0Q5360.0 -1802.0 5514.0 -1802.0Q5780.0 -1802.0 5780.0 -1298.0Q5780.0 -1123.0 5723.0 -934.0Q5668.0 -751.0 5580.0 -676.0H5985.0Z M6780.0 0.0H6710.0Q6646.0 0.0 6591.0 -61.0Q6533.0 -114.0 6501.0 -180.0Q6455.0 -257.0 6431.0 -307.0Q6344.0 -136.0 6263.0 -70.0Q6177.0 0.0 6091.0 0.0H5944.0V-676.0H6116.0Q6300.0 -676.0 6300.0 -757.0V-2203.0Q6337.0 -2325.0 6398.0 -2462.0Q6404.0 -2470.0 6415.0 -2498.0Q6417.0 -2509.0 6431.0 -2548.0Q6451.0 -2581.0 6456.0 -2605.0L6471.0 -2641.0Q6476.0 -2651.0 6476.0 -2652.5Q6476.0 -2654.0 6477.0 -2655.5Q6478.0 -2657.0 6479.0 -2661.0Q6480.0 -2665.0 6484.0 -2674.0L6489.0 -2684.0L6501.0 -2715.0Q6538.0 -2715.0 6538.0 -2681.0V-942.0Q6538.0 -677.0 6681.0 -676.0H6780.0Z M7039.0 -1693.0 7145.0 -1939.0 7940.0 -2291.0 7850.0 -2062.0Z M8156.0 -574.0Q8060.0 -983.0 7866.0 -983.0Q7763.0 -983.0 7632.0 -827.0Q7695.0 -721.0 8156.0 -574.0ZM8173.0 0.0H8136.0Q7384.0 -144.0 7358.0 -389.0Q7352.0 -443.0 7329.0 -451.0Q7301.0 -423.0 7218.0 -283.0Q7143.0 -157.0 7050.0 -74.0Q6968.0 0.0 6846.0 0.0H6739.0V-676.0H6993.0Q7146.0 -676.0 7272.0 -790.0Q7410.0 -915.0 7526.0 -1065.0Q7652.0 -1229.0 7739.0 -1315.0Q7817.0 -1393.0 7935.0 -1393.0Q8049.0 -1393.0 8181.0 -1229.0Q8318.0 -1060.0 8419.0 -860.0Q8517.0 -666.0 8517.0 -574.0Q8517.0 -475.0 8415.0 -237.5Q8313.0 0.0 8173.0 0.0Z M1837.5 2265.3H1888.5L1890.2 2261.9Q1877.4 2242.4 1871.0 2222.4Q1864.7 2202.4 1864.7 2179.5Q1864.7 2151.4 1874.9 2127.6Q1885.1 2103.8 1902.9 2086.0Q1920.8 2068.2 1945.8 2057.9Q1970.9 2047.8 2000.7 2047.8Q2042.3 2047.8 2075.0 2065.2Q2107.8 2082.6 2129.9 2114.0L2065.3 2176.1Q2051.7 2156.5 2033.8 2148.9Q2016.0 2141.2 1993.9 2141.2Q1968.4 2141.2 1950.9 2155.3Q1933.5 2169.3 1933.5 2192.2Q1933.5 2222.0 1960.3 2239.8Q1987.1 2257.7 2034.7 2257.7H2145.2V2350.3H1837.5Z M2227.6 1721.3H2306.7V2350.3H2227.6Z M2423.1 2062.2Q2398.5 2062.2 2385.3 2044.8Q2372.1 2027.4 2372.1 1995.9V1934.7H2421.4V1978.9Q2421.4 1999.3 2439.3 1999.3Q2461.4 1999.3 2461.4 1964.5V1910.1H2510.7V1943.2Q2510.7 1970.4 2530.2 1970.4Q2540.4 1970.4 2546.4 1963.6Q2552.3 1956.8 2552.3 1944.9Q2552.3 1923.7 2540.4 1889.7L2588.9 1875.2Q2595.7 1893.9 2598.2 1911.3Q2600.8 1928.8 2600.8 1943.2Q2600.8 1985.7 2582.1 2009.1Q2563.4 2032.5 2529.4 2032.5Q2510.7 2032.5 2497.5 2021.4Q2484.3 2010.4 2480.1 1990.8H2476.7Q2471.6 2062.2 2423.1 2062.2Z M2314.3 2458.3H2346.6Q2390.0 2458.3 2418.9 2447.2Q2447.8 2436.2 2465.6 2416.2Q2483.5 2396.2 2491.1 2368.2Q2498.8 2340.2 2498.8 2305.3Q2498.8 2282.3 2496.2 2257.7Q2493.7 2233.0 2489.4 2208.4L2471.6 2105.5L2544.7 2091.9L2556.6 2163.3Q2560.8 2188.0 2563.8 2210.9Q2566.8 2233.9 2568.5 2254.3H2647.5V2329.9L2627.1 2350.3H2568.5Q2563.4 2394.5 2548.1 2431.9Q2532.8 2469.3 2506.0 2496.6Q2479.2 2523.8 2440.1 2539.1Q2401.0 2554.3 2347.5 2554.3H2314.3Z M2627.1 2274.7 2647.5 2254.3H2757.2L2758.9 2250.0Q2682.4 2184.6 2682.4 2096.2Q2682.4 2060.5 2693.8 2029.0Q2705.3 1997.6 2726.6 1973.8Q2747.8 1950.0 2777.1 1936.4Q2806.5 1922.8 2842.2 1922.8Q2877.9 1922.8 2907.2 1936.4Q2936.5 1950.0 2957.3 1973.4Q2978.2 1996.8 2990.1 2028.6Q3002.0 2060.5 3002.0 2096.2Q3002.0 2183.8 2925.5 2250.0L2927.2 2254.3H3037.7V2329.9L3017.3 2350.3H3007.1Q2962.0 2350.3 2920.8 2339.7Q2879.6 2329.1 2842.2 2304.4Q2805.6 2329.1 2764.0 2339.7Q2722.3 2350.3 2678.1 2350.3H2627.1ZM2842.2 2234.8Q2885.5 2210.9 2909.3 2180.3Q2933.1 2149.8 2933.1 2108.9Q2933.1 2068.2 2908.9 2043.5Q2884.7 2018.8 2846.4 2018.8H2837.1Q2798.8 2018.8 2774.6 2043.5Q2750.4 2068.2 2750.4 2108.9Q2750.4 2149.8 2774.6 2180.3Q2798.8 2210.9 2842.2 2234.8ZM2894.0 1836.1Q2874.5 1836.1 2863.0 1824.2Q2851.5 1812.3 2851.5 1787.6Q2851.5 1762.1 2863.0 1750.7Q2874.5 1739.2 2894.0 1739.2H2906.8Q2926.3 1739.2 2938.2 1750.7Q2950.1 1762.1 2950.1 1787.6Q2950.1 1812.3 2938.2 1824.2Q2926.3 1836.1 2906.8 1836.1ZM2774.2 1836.1Q2754.6 1836.1 2743.1 1824.2Q2731.7 1812.3 2731.7 1787.6Q2731.7 1762.1 2743.1 1750.7Q2754.6 1739.2 2774.2 1739.2H2786.9Q2806.5 1739.2 2818.4 1750.7Q2830.3 1762.1 2830.3 1787.6Q2830.3 1812.3 2818.4 1824.2Q2806.5 1836.1 2786.9 1836.1Z M3017.3 2274.7 3037.7 2254.3H3067.4Q3104.8 2254.3 3119.7 2238.1Q3134.6 2222.0 3134.6 2187.2V1721.3H3214.5V2187.2Q3214.5 2271.3 3180.5 2310.8Q3146.5 2350.3 3067.4 2350.3H3017.3Z M3331.8 1721.3H3410.8V2350.3H3331.8Z M3933.6 2554.3Q3822.2 2554.3 3762.3 2496.6Q3702.4 2438.8 3702.4 2333.3Q3702.4 2295.1 3713.0 2249.2Q3723.6 2203.3 3742.3 2159.1L3806.9 2178.7Q3790.8 2214.3 3780.6 2252.6Q3770.4 2290.8 3770.4 2321.4Q3770.4 2383.5 3806.1 2417.5Q3841.8 2451.5 3904.7 2451.5H3963.3Q3999.9 2451.5 4025.4 2443.0Q4050.9 2434.5 4067.0 2414.9Q4083.2 2395.4 4090.0 2363.5Q4096.8 2331.7 4096.8 2285.8V1721.3H4176.7V2254.3H4276.1V2329.9L4255.7 2350.3H4173.3Q4160.5 2455.8 4101.9 2505.1Q4043.2 2554.3 3933.6 2554.3Z M4255.7 2274.7 4276.1 2254.3H4355.2Q4393.4 2254.3 4407.9 2246.2Q4422.3 2238.2 4422.3 2218.6Q4422.3 2205.8 4414.7 2193.1Q4407.0 2180.3 4385.8 2155.7L4284.6 2044.3V1864.1L4668.8 1712.0V1803.8L4319.5 1942.3V1947.4L4520.1 2165.9Q4544.7 2193.1 4564.3 2210.1Q4583.8 2227.1 4601.7 2236.9Q4619.5 2246.7 4637.4 2250.5Q4655.2 2254.3 4677.3 2254.3V2329.9L4656.9 2350.3Q4627.2 2350.3 4604.2 2345.7Q4581.3 2341.0 4560.9 2328.2Q4540.5 2315.5 4519.2 2293.8Q4498.0 2272.2 4472.5 2238.2L4454.6 2214.3L4450.4 2216.0Q4452.9 2230.5 4452.9 2243.2Q4452.9 2290.8 4424.5 2320.6Q4396.0 2350.3 4347.5 2350.3H4255.7Z M4656.9 2274.7 4677.3 2254.3H4707.1Q4744.5 2254.3 4759.3 2238.1Q4774.2 2222.0 4774.2 2187.2V1721.3H4854.1V2187.2Q4854.1 2271.3 4820.1 2310.8Q4786.1 2350.3 4707.1 2350.3H4656.9Z M5393.0 2487.2Q5274.0 2487.2 5209.9 2429.0Q5145.7 2370.8 5145.7 2266.2Q5145.7 2227.1 5156.3 2181.6Q5166.9 2136.2 5185.6 2091.9L5250.2 2111.5Q5234.1 2146.3 5223.9 2182.9Q5213.7 2219.4 5213.7 2249.2Q5213.7 2312.9 5253.6 2348.6Q5293.6 2384.3 5364.1 2384.3H5422.8Q5505.2 2384.3 5543.9 2349.9Q5582.6 2315.5 5582.6 2240.7Q5582.6 2216.9 5578.3 2185.9Q5574.1 2154.8 5565.6 2114.0L5549.4 2039.2L5623.4 2024.8L5637.0 2098.8Q5645.5 2143.8 5649.7 2178.6Q5654.0 2213.5 5654.0 2240.7Q5654.0 2367.3 5591.1 2427.3Q5528.2 2487.2 5393.0 2487.2ZM5396.4 2024.8Q5376.9 2024.8 5365.4 2012.9Q5353.9 2001.0 5353.9 1976.4Q5353.9 1950.9 5365.4 1939.4Q5376.9 1927.9 5396.4 1927.9H5409.2Q5428.7 1927.9 5440.6 1939.4Q5452.5 1950.9 5452.5 1976.4Q5452.5 2001.0 5440.6 2012.9Q5428.7 2024.8 5409.2 2024.8Z M5899.6 2350.3Q5816.3 2350.3 5779.8 2315.9Q5743.2 2281.5 5743.2 2200.8V1721.3H5822.3V2193.1Q5822.3 2228.8 5838.9 2241.5Q5855.4 2254.3 5893.7 2254.3H5921.7V2329.9L5900.5 2350.3Z M5901.3 2274.7 5921.7 2254.3H6000.8Q6039.0 2254.3 6053.5 2246.2Q6067.9 2238.2 6067.9 2218.6Q6067.9 2205.8 6060.3 2193.1Q6052.6 2180.3 6031.4 2155.7L5930.2 2044.3V1864.1L6314.4 1712.0V1803.8L5965.1 1942.3V1947.4L6165.7 2165.9Q6190.3 2193.1 6209.9 2210.1Q6229.4 2227.1 6247.3 2236.9Q6265.1 2246.7 6283.0 2250.5Q6300.8 2254.3 6322.9 2254.3V2329.9L6302.5 2350.3Q6272.8 2350.3 6249.8 2345.7Q6226.9 2341.0 6206.5 2328.2Q6186.1 2315.5 6164.8 2293.8Q6143.6 2272.2 6118.1 2238.2L6100.2 2214.3L6096.0 2216.0Q6098.5 2230.5 6098.5 2243.2Q6098.5 2290.8 6070.1 2320.6Q6041.6 2350.3 5993.1 2350.3H5901.3Z M6419.0 2301.9Q6399.4 2328.2 6372.2 2339.3Q6345.0 2350.3 6302.5 2350.3V2274.7L6322.9 2254.3Q6355.2 2254.3 6370.1 2240.3Q6385.0 2226.2 6397.7 2192.2L6421.5 2131.0Q6441.9 2078.3 6475.5 2046.5Q6509.1 2014.6 6566.0 2014.6Q6635.7 2014.6 6673.1 2073.7Q6710.5 2132.8 6710.5 2239.0V2272.2L6646.8 2365.7ZM6458.9 2212.7 6637.4 2262.8V2239.0Q6637.4 2178.7 6614.5 2144.7Q6591.5 2110.7 6550.7 2110.7Q6521.0 2110.7 6502.7 2128.1Q6484.4 2145.5 6472.5 2176.1Z" fill="currentColor"/></svg>